<?xml version="1.0" encoding="utf-8"?>
<!-- Generator: Adobe Illustrator 19.0.0, SVG Export Plug-In . SVG Version: 6.00 Build 0)  -->
<svg version="1.1" id="Layer_1" xmlns="http://www.w3.org/2000/svg" xmlns:xlink="http://www.w3.org/1999/xlink" x="0px" y="0px"
	 viewBox="0 0 96 96" style="enable-background:new 0 0 96 96;" xml:space="preserve">
<style type="text/css">
	.st0{fill:#333333;}
</style>
<g id="XMLID_2_">
	<path id="XMLID_4_" class="st0" d="M75.5,64.8c0,1.2-0.4,2.3-1.3,3.1l-6.3,6.3c-0.9,0.9-1.9,1.3-3.1,1.3c-1.2,0-2.3-0.4-3.1-1.3
		L48,60.6L34.4,74.2c-0.9,0.9-1.9,1.3-3.1,1.3c-1.2,0-2.3-0.4-3.1-1.3l-6.3-6.3c-0.9-0.9-1.3-1.9-1.3-3.1c0-1.2,0.4-2.3,1.3-3.1
		L35.4,48L21.8,34.4c-0.9-0.9-1.3-1.9-1.3-3.1c0-1.2,0.4-2.3,1.3-3.1l6.3-6.3c0.9-0.9,1.9-1.3,3.1-1.3c1.2,0,2.3,0.4,3.1,1.3
		L48,35.4l13.6-13.6c0.9-0.9,1.9-1.3,3.1-1.3c1.2,0,2.3,0.4,3.1,1.3l6.3,6.3c0.9,0.9,1.3,1.9,1.3,3.1c0,1.2-0.4,2.3-1.3,3.1L60.6,48
		l13.6,13.6C75.1,62.5,75.5,63.5,75.5,64.8z"/>
</g>
</svg>
